<svg width="96" height="40" viewBox="0 0 96 40" fill="none" xmlns="http://www.w3.org/2000/svg">
<path fill-rule="evenodd" clip-rule="evenodd" d="M21.0679 40C25.0874 40 28.7124 39.2676 31.943 37.8028L29.351 30.4789C27.7357 31.1174 26.3083 31.5869 25.0686 31.8873C23.8665 32.1502 22.533 32.2817 21.0679 32.2817C17.9125 32.2817 15.3768 31.2864 13.461 29.2958C11.5828 27.3052 10.6249 24.2066 10.5873 20C10.6249 15.831 11.6203 12.7512 13.5737 10.7606C15.5271 8.7324 18.0627 7.71831 21.1806 7.71831C22.6832 7.71831 24.0168 7.84976 25.1813 8.11267C26.3834 8.33803 27.7545 8.73239 29.2947 9.29577L31.8303 2.19718C28.487 0.732394 24.9371 0 21.1806 0H21.1243C17.1424 0 13.6301 0.807511 10.5873 2.42254C7.54452 4 5.17792 6.29108 3.4875 9.29577C1.79707 12.3005 0.933073 15.831 0.895508 19.8873V20V20.1127C0.933073 26.7606 2.71741 31.7371 6.24853 35.0423C9.77964 38.3474 14.7194 40 21.0679 40ZM50.1384 0C52.5425 0 54.6086 0.206572 56.3366 0.619719C58.0646 1.03286 59.8302 1.67136 61.6333 2.53521L59.4357 9.6338C56.2051 8.13146 53.1811 7.38028 50.3638 7.38028C48.5606 7.38028 47.1895 7.69953 46.2504 8.33803C45.3113 8.97653 44.8417 9.93427 44.8417 11.2113C44.8417 12.4131 45.4052 13.3897 46.5321 14.1408C47.6591 14.892 49.4246 15.7559 51.8288 16.7324C54.1578 17.7089 56.0549 18.6103 57.5199 19.4366C59.0225 20.2629 60.2997 21.4085 61.3515 22.8732C62.4409 24.3005 62.9856 26.0845 62.9856 28.2253C62.9856 30.5915 62.3658 32.6573 61.1261 34.4225C59.9241 36.1878 58.1773 37.5587 55.8858 38.5352C53.6319 39.5117 50.9836 40 47.9408 40C45.6869 40 43.3391 39.7371 40.8974 39.2113C38.4557 38.6479 36.2205 37.8779 34.192 36.9014L36.5023 29.5211C38.2678 30.4225 40.1836 31.1361 42.2497 31.662C44.3158 32.1878 46.2316 32.4507 47.9972 32.4507C49.6876 32.4507 51.0212 32.1127 51.9978 31.4366C52.9745 30.723 53.4629 29.7653 53.4629 28.5634C53.4629 27.3615 52.9182 26.4225 51.8288 25.7465C50.7394 25.0329 49.0302 24.2441 46.7012 23.3803C44.3346 22.5164 42.4 21.6714 40.8974 20.8451C39.3948 20.0188 38.0988 18.8732 37.0094 17.4084C35.92 15.9061 35.3753 13.9906 35.3753 11.662C35.3753 7.9061 36.6525 5.03286 39.2069 3.04225C41.7989 1.01408 45.4427 0 50.1384 0ZM79.3833 0.563354C82.5763 0.563354 85.3561 1.08918 87.7227 2.14082C90.0893 3.19246 91.9112 4.69481 93.1885 6.64786C94.4657 8.60091 95.1043 10.9108 95.1043 13.5774C95.1043 16.2441 94.4657 18.5727 93.1885 20.5634C91.9112 22.5164 90.0706 24.0375 87.6664 25.1267C85.2998 26.1784 82.5388 26.7042 79.3833 26.7042H76.0588V39.4366H66.4797V0.563354H79.3833ZM76.0588 7.66195V19.6056H79.5524C81.393 19.6056 82.8393 19.061 83.8911 17.9718C84.9805 16.8826 85.5252 15.4366 85.5252 13.6338C85.5252 11.7934 84.9993 10.3474 83.9475 9.29575C82.8956 8.20655 81.4306 7.66195 79.5524 7.66195H76.0588Z" fill="#E30613"/>
</svg>
