<svg width="16" height="16" viewBox="0 0 16 16" fill="none" xmlns="http://www.w3.org/2000/svg">
<path fill-rule="evenodd" clip-rule="evenodd" d="M4.04985 6.3056C4.74027 4.42512 6.5468 3.0835 8.66669 3.0835C11.3821 3.0835 13.5834 5.28476 13.5834 8.00016C13.5834 10.7156 11.3821 12.9168 8.66669 12.9168C7.32101 12.9168 6.10284 12.3772 5.21429 11.5008C4.91939 11.2099 4.44452 11.2132 4.15366 11.5081C3.86279 11.803 3.86606 12.2779 4.16096 12.5688C5.31879 13.7107 6.91102 14.4168 8.66669 14.4168C12.2105 14.4168 15.0834 11.544 15.0834 8.00016C15.0834 4.45634 12.2105 1.5835 8.66669 1.5835C5.58159 1.5835 3.00501 3.76072 2.38966 6.66247L2.19702 6.46983C1.90412 6.17694 1.42925 6.17694 1.13636 6.46983C0.843464 6.76273 0.843464 7.2376 1.13636 7.53049L2.46969 8.86383C2.76258 9.15672 3.23746 9.15672 3.53035 8.86383L4.86368 7.53049C5.15658 7.2376 5.15658 6.76273 4.86368 6.46983C4.64367 6.24982 4.32096 6.19507 4.04985 6.3056Z" fill="#ABB1BF"/>
</svg>
