<svg width="16" height="16" viewBox="0 0 16 16" fill="none" xmlns="http://www.w3.org/2000/svg">
<path d="M13.9394 1.65625C13.9394 1.29381 13.6545 1 13.303 1C12.9516 1 12.6667 1.29381 12.6667 1.65625V6.46875C12.6667 6.83119 12.9516 7.125 13.303 7.125C13.6545 7.125 13.9394 6.83119 13.9394 6.46875V1.65625Z" fill="#9296A0"/>
<path d="M13.9394 13.0312C13.9394 12.6688 13.6545 12.375 13.303 12.375C12.9516 12.375 12.6667 12.6688 12.6667 13.0312V14.3438C12.6667 14.7062 12.9516 15 13.303 15C13.6545 15 13.9394 14.7062 13.9394 14.3438V13.0312Z" fill="#9296A0"/>
<path d="M2.69697 12.375C3.04842 12.375 3.33333 12.6688 3.33333 13.0312V14.3438C3.33333 14.7062 3.04842 15 2.69697 15C2.34552 15 2.06061 14.7062 2.06061 14.3438V13.0312C2.06061 12.6688 2.34552 12.375 2.69697 12.375Z" fill="#9296A0"/>
<path d="M3.33333 1.65625C3.33333 1.29381 3.04842 1 2.69697 1C2.34552 1 2.06061 1.29381 2.06061 1.65625V6.46875C2.06061 6.83119 2.34552 7.125 2.69697 7.125C3.04842 7.125 3.33333 6.83119 3.33333 6.46875V1.65625Z" fill="#9296A0"/>
<path d="M8 8.875C8.35145 8.875 8.63636 9.16881 8.63636 9.53125V14.3438C8.63636 14.7062 8.35145 15 8 15C7.64855 15 7.36364 14.7062 7.36364 14.3438V9.53125C7.36364 9.16881 7.64855 8.875 8 8.875Z" fill="#9296A0"/>
<path d="M8.63636 1.65625C8.63636 1.29381 8.35145 1 8 1C7.64855 1 7.36364 1.29381 7.36364 1.65625V2.96875C7.36364 3.33119 7.64855 3.625 8 3.625C8.35145 3.625 8.63636 3.33119 8.63636 2.96875V1.65625Z" fill="#9296A0"/>
<path d="M8 4.5C7.06279 4.5 6.30303 5.2835 6.30303 6.25C6.30303 7.2165 7.06279 8 8 8C8.93721 8 9.69697 7.2165 9.69697 6.25C9.69697 5.2835 8.93721 4.5 8 4.5Z" fill="#9296A0"/>
<path d="M2.69697 8C1.75976 8 1 8.7835 1 9.75C1 10.7165 1.75976 11.5 2.69697 11.5C3.63418 11.5 4.39394 10.7165 4.39394 9.75C4.39394 8.7835 3.63418 8 2.69697 8Z" fill="#9296A0"/>
<path d="M13.303 8C12.3658 8 11.6061 8.7835 11.6061 9.75C11.6061 10.7165 12.3658 11.5 13.303 11.5C14.2402 11.5 15 10.7165 15 9.75C15 8.7835 14.2402 8 13.303 8Z" fill="#9296A0"/>
</svg>
